<svg xmlns="http://www.w3.org/2000/svg" width="22.243" height="22.243" viewBox="0 0 22.243 22.243">
  <g id="ic_add_photo" transform="translate(0.395 -0.242)">
    <g id="Path_58621" data-name="Path 58621" transform="translate(1.727 2.363)" fill="#fff">
      <path d="M 9 19.06065940856934 L 8.469670295715332 18.53033065795898 L -0.5303300023078918 9.530329704284668 L -1.060660004615784 9 L -0.5303300023078918 8.469670295715332 L 8.469670295715332 -0.5303300023078918 L 9 -1.060660004615784 L 9.530329704284668 -0.5303300023078918 L 18.53033065795898 8.469670295715332 L 19.06065940856934 9 L 18.53033065795898 9.530329704284668 L 9.530329704284668 18.53033065795898 L 9 19.06065940856934 Z" stroke="none"/>
      <path d="M 9 0 L 0 9 L 9 18 L 18 9 L 9 0 M 9 -2.121320724487305 L 20.1213207244873 9 L 9 20.1213207244873 L -2.121320724487305 9 L 9 -2.121320724487305 Z" stroke="none" fill="#fff"/>
    </g>
    <path id="cross" d="M3.573,2.512,6.085,0,7.147,1.061,4.635,3.573,7.147,6.085,6.085,7.147,3.573,4.635,1.061,7.147,0,6.085,2.512,3.573,0,1.061,1.061,0Z" transform="translate(10.791 6.374) rotate(45)"/>
  </g>
</svg>
