<svg xmlns="http://www.w3.org/2000/svg" width="106.613" height="123.849" viewBox="0 0 106.613 123.849">
  <g id="No_messages" data-name="No messages" transform="translate(-146.74 -321.844)">
    <path id="Polygon_8" data-name="Polygon 8" d="M91.152,0l30.384,52.306L91.152,104.613H30.384L0,52.306,30.384,0Z" transform="translate(252.353 323) rotate(90)" fill="rgba(255,255,255,0)" stroke="#000" stroke-width="2" opacity="0.116"/>
    <g id="Group_18639" data-name="Group 18639" transform="translate(-199.677 305.861)">
      <path id="Path_35930" data-name="Path 35930" d="M381.879,90.762h-4.321V53.639h37.961V57.99" transform="translate(0 0)" fill="#9a9a9a"/>
      <g id="Path_33006" data-name="Path 33006" transform="translate(384.067 59.995)" fill="#9a9a9a">
        <path d="M 39.32065582275391 43.82338333129883 L 37.31539535522461 43.10600280761719 L 26.73436737060547 39.32065582275391 L -3.995971837866819e-06 39.32065582275391 L -1.500004053115845 39.32065582275391 L -1.500004053115845 37.82065582275391 L -1.500004053115845 4.182739303359995e-06 L -1.500004053115845 -1.499995827674866 L -3.995971837866819e-06 -1.499995827674866 L 37.82065582275391 -1.499995827674866 L 39.32065582275391 -1.499995827674866 L 39.32065582275391 4.182739303359995e-06 L 39.32065582275391 24.58342361450195 L 39.32065582275391 41.69366455078125 L 39.32065582275391 43.82338333129883 Z" stroke="none"/>
        <path d="M -3.814697265625e-06 3.814697265625e-06 L -3.814697265625e-06 37.82065582275391 L 26.99459457397461 37.82065582275391 L 37.82065582275391 41.69366455078125 L 37.82065582275391 3.814697265625e-06 L -3.814697265625e-06 3.814697265625e-06 M -3.000003814697266 -2.999996185302734 L 40.82065582275391 -2.999996185302734 L 40.82065582275391 45.95310211181641 L 26.47413063049316 40.82065582275391 L -3.000003814697266 40.82065582275391 L -3.000003814697266 -2.999996185302734 Z" stroke="none" fill="#f4f4f4"/>
      </g>
    </g>
  </g>
</svg>
