<svg xmlns="http://www.w3.org/2000/svg" width="193" height="88" viewBox="0 0 193 88">
  <g id="Group_19096" data-name="Group 19096" transform="translate(-34 -530)">
    <rect id="Rectangle_5038" data-name="Rectangle 5038" width="193" height="88" transform="translate(34 530)" fill="#212121"/>
    <g id="Hyperlink" transform="translate(119.565 562.563)">
      <path id="Path_73517" data-name="Path 73517" d="M12.868,19.149a1.42,1.42,0,0,0-1.011.419L9.048,22.377A3.626,3.626,0,0,1,3.921,17.25L6.73,14.441a1.43,1.43,0,0,0-2.022-2.022L1.9,15.228A6.485,6.485,0,0,0,11.07,24.4l2.809-2.809a1.43,1.43,0,0,0-1.011-2.441Z" transform="translate(0 -3.421)" fill="#fff"/>
      <path id="Path_73518" data-name="Path 73518" d="M24.412,1.913A6.484,6.484,0,0,0,15.228,1.9L12.419,4.709A1.43,1.43,0,1,0,14.441,6.73L17.25,3.922a3.626,3.626,0,0,1,5.127,5.127l-2.809,2.809A1.43,1.43,0,0,0,21.59,13.88L24.4,11.071a6.5,6.5,0,0,0,.013-9.158Z" transform="translate(-3.421 0)" fill="#fff"/>
      <path id="Path_73519" data-name="Path 73519" d="M7,18.439A1.43,1.43,0,0,0,9.441,19.45L19.45,9.441a1.43,1.43,0,1,0-2.022-2.022L7.419,17.428A1.42,1.42,0,0,0,7,18.439Z" transform="translate(-1.996 -1.996)" fill="#fff"/>
    </g>
  </g>
</svg>
